<svg version="1.2" xmlns="http://www.w3.org/2000/svg" viewBox="0 0 504 325" width="504" height="325">
	<title>logoSerdeco</title>
	<style>
		.s0 { fill: #90c73f } 
		.s1 { fill: #ffce21 } 
		.s2 { fill: #ffffff } 
	</style>
	<g>
		<g>
			<path class="s0" d="m229.1 51.8c-9.3 0.9-68.5 7.5-92.9 53.8-2.5 4.8-6.9 13.4-8.2 25.2-5.8 54.4 63.8 99 77.2 107.5 44 28.2 89.9 33.8 114.5 36.8 13.6 1.7 24.9 2.2 32.8 2.4-8.1 1.6-20.7 4-36.3 5.8-77.3 9-223.6 3.5-259.5-74.8-1.9-4.2-13.4-30.4-5.3-60.8 14.7-54.6 85.1-94.1 177.7-95.9z"/>
			<path id="Layer copy" class="s0" d="m229.1 51.8c-9.3 0.9-68.5 7.5-92.9 53.8-2.5 4.8-6.9 13.4-8.2 25.2-5.8 54.4 63.8 99 77.2 107.5 44 28.2 89.9 33.8 114.5 36.8 13.6 1.7 24.9 2.2 32.8 2.4-8.1 1.6-20.7 4-36.3 5.8-77.3 9-223.6 3.5-259.5-74.8-1.9-4.2-13.4-30.4-5.3-60.8 14.7-54.6 85.1-94.1 177.7-95.9z"/>
			<path class="s0" d="m219.8 130.1c35.8 12 66.8 17.3 89.4 19.9 57.2 6.6 85-1.7 101.4-12.8 12-8.1 15.2-16 16.4-20.2 4.1-14.6-4.4-27.9-6.7-31.3 11.9 10.9 43.4 41.8 35.3 65.2-12.6 36.9-113.3 26-118.3 25.4-54.3-6.2-94.7-29.9-117.5-46.2z"/>
			<path class="s1" d="m183 78.4c-1 7.8-1.5 19.5 2.1 32.5 26 91.2 216.5 96.9 256.5 75.4 8.8-4.8 14-11.9 14-11.9 13.6-18.5 6.7-44.4 3.5-54.3 27 56.7 19.1 85 10.6 99-43.7 72.3-262.8 36.1-306.9-44.2-5.8-10.7-19.6-35.8-10.5-61.8 6.6-19.2 22.5-30 30.7-34.7z"/>
			<path id="Layer copy 2" class="s1" d="m183 78.4c-1 7.8-1.5 19.5 2.1 32.5 26 91.2 216.5 96.9 256.5 75.4 8.8-4.8 14-11.9 14-11.9 13.6-18.5 6.7-44.4 3.5-54.3 27 56.7 19.1 85 10.6 99-43.7 72.3-262.8 36.1-306.9-44.2-5.8-10.7-19.6-35.8-10.5-61.8 6.6-19.2 22.5-30 30.7-34.7z"/>
			<path class="s1" d="m24.9 181.9c-3-31.5 4.7-51.7 10.4-62.7 37.2-71.6 156.8-74.5 195.2-75.5 22.6-0.5 41 1 52.8 2.4-12.4-4.2-30.5-9.1-52.8-11.3-73.2-7.3-179.4 16.7-204.2 85.8-4.2 11.8-8.6 32.1-1.4 61.3z"/>
			<path class="s1" d="m347.6 51.8c8.6 3.5 24.4 11.3 36.8 28.1 5.8 7.8 12.7 17.1 12 28.4-1 16.3-17.6 31.4-40.8 38.1 35.6-5 59.9-19.2 61.7-35.7 0.2-2 0.5-8-6.8-19.2-17.7-26.9-48.4-36.3-62.9-39.7z"/>
		</g>
		<g>
			<path class="s2" d="m675 116.1c0.3-20-1.5-39.8-24.6-39.8-14 0-23 5.7-23 21 0 17 10.8 23.6 23.9 31.9 13.8 8.7 39.2 25.4 50.8 36.8 14.4 14 18.9 27.5 18.9 46.9 0 42.4-28.1 64.5-69.1 64.5-50.2 0-68.1-28-68.1-68.1v-16.4h41.9v13.1c-0.9 21.8 5.6 37.7 26.3 37.7 17.6 0 26-9.3 26-26.3 0-13.2-6-22.1-16.8-29.6-21.8-17-49-29.3-66-51.7-6.9-10.2-10.8-22.4-10.8-34.4 0-38.2 21.5-59.1 65.8-59.1 66.6 0 64.8 51.4 65.1 73.5z"/>
			<path class="s2" d="m754.4 272.1v-224.2h117.8v32.9h-75.9v56.5h69.9v32.9h-69.9v69h75.9v32.9z"/>
			<path class="s2" d="m946.3 175.5v96.6h-41.9v-224.2h79.2c36.2 0 63.7 12.6 63.7 53.8 0 24.5-6.3 50.3-34.4 54.1v0.6c24.8 3.3 32.3 19.2 32.3 40.7 0 9.2-1.2 64.2 8.9 70.8v4.2h-46c-5.1-14.4-4.2-41.9-4.5-56.8-0.3-13.7 0-32.6-14.3-36.8-11.4-3.2-23.6-2.9-35.6-2.9zm0-32.9h32.9c13.7-0.9 24.5-9.9 24.5-32.3 0-25.1-10.4-29.3-26.3-29.6h-31.1z"/>
			<path class="s2" d="m1088.8 272.1v-224.2h87.3c10.1 0 30.4 4.5 43.3 25.4 9.6 15.6 12.2 40.4 12.2 77.4 0 44.3 0 95.4-34.3 115.4-9.3 5.4-20.6 6-31.1 6zm60.1-32.9c37.3 0 39.7-19.7 39.7-84.6 0-52.9-5.4-73.8-30.5-73.8h-27.5v158.4z"/>
			<path class="s2" d="m1269 272.1v-224.2h117.7v32.9h-75.9v56.5h69.9v32.9h-69.9v69h75.9v32.9z"/>
			<path class="s2" d="m1552.3 192.3c-0.4 4.2-0.6 8.6-1 12.8-2 41-15.8 72.4-62.4 72.4-68.7 0-73.2-43.7-73.2-103.4v-32c1.8-57.1 6.3-99.5 73.2-99.5 37.3 0.6 58.3 19.7 61.3 58 0.6 5.6 1.1 11.3 0.9 17h-41.3c-1.8-14.4-0.3-41.3-20.9-41.3-32.9 0-30.2 39.2-30.2 56.5v62.2c0 18.5 1.5 48.7 30.2 48.7 23 0 20.3-37.1 21.2-51.4z"/>
			<path class="s2" d="m1583.6 142.1c1.8-57.1 6.3-99.5 73.2-99.5 67 0 71.4 42.4 73.2 99.5v32c0 59.7-4.4 103.4-73.2 103.4-68.7 0-73.2-43.7-73.2-103.4zm43.1 52.9c0 18.5 1.4 48.7 30.1 48.7 29.9 0 30.2-30.8 30.2-52.3v-57.4c0-17.9 0.9-57.7-30.2-57.7-32.8 0-30.1 39.2-30.1 56.5z"/>
		</g>
	</g>
</svg>